<svg width="30" height="30" viewBox="0 0 30 30" fill="none" xmlns="http://www.w3.org/2000/svg">
<path d="M20 11.25C20 17.9125 10 17.9125 10 11.25H12.5C12.5 14.5875 17.5 14.5875 17.5 11.25M25 22.5V26.25H5V22.5C5 19.1625 11.6625 17.5 15 17.5C18.3375 17.5 25 19.1625 25 22.5ZM22.625 22.5C22.625 21.7 18.7125 19.875 15 19.875C11.2875 19.875 7.375 21.7 7.375 22.5V23.875H22.625M15.625 2.5C15.975 2.5 16.25 2.775 16.25 3.125V6.875H17.5V3.75C18.3846 4.1594 19.1258 4.82524 19.6273 5.66111C20.1288 6.49697 20.3676 7.46428 20.3125 8.4375C20.3125 8.4375 21.1875 8.6125 21.25 10H8.75C8.75 8.6125 9.6875 8.4375 9.6875 8.4375C9.63244 7.46428 9.87116 6.49697 10.3727 5.66111C10.8742 4.82524 11.6154 4.1594 12.5 3.75V6.875H13.75V3.125C13.75 2.775 14.025 2.5 14.375 2.5" fill="#082E60"/>
</svg>
